<svg width="28" height="28" viewBox="0 0 28 28" fill="none" xmlns="http://www.w3.org/2000/svg">
<path d="M23.3333 14.3198C23.3333 14.7628 23.0041 15.1289 22.577 15.1868L22.4583 15.1948L4.95825 15.1948C4.475 15.1948 4.08325 14.8031 4.08325 14.3198C4.08325 13.8768 4.41243 13.5108 4.83952 13.4528L4.95825 13.4448L22.4583 13.4448C22.9415 13.4448 23.3333 13.8366 23.3333 14.3198Z" fill="#212121"/>
<path d="M12.6337 20.7289C12.9762 21.0698 12.9774 21.6239 12.6364 21.9663C12.3264 22.2776 11.8404 22.3069 11.4973 22.0535L11.399 21.969L4.34064 14.941C4.0284 14.6301 3.99999 14.1423 4.25544 13.7992L4.34059 13.7009L11.3989 6.67175C11.7413 6.33075 12.2954 6.3319 12.6364 6.67431C12.9464 6.9856 12.9736 7.47176 12.7187 7.81378L12.6338 7.91175L6.19842 14.3213L12.6337 20.7289Z" fill="#212121"/>
</svg>
