<svg width="42" height="29" viewBox="0 0 42 29" fill="none" xmlns="http://www.w3.org/2000/svg">
<rect width="41.9031" height="27.2115" rx="3" fill="black"/>
<g clip-path="url(#clip0_2_563)">
<path d="M16.5182 5.73633H25.3524V21.6098H16.5182V5.73633Z" fill="#FF5F00"/>
<path d="M17.0792 13.6734C17.0792 10.4482 18.5936 7.58758 20.9213 5.73656C19.2106 4.39043 17.0512 3.57715 14.6955 3.57715C9.11431 3.57715 4.59912 8.09233 4.59912 13.6734C4.59912 19.2543 9.11431 23.7696 14.6953 23.7696C17.0511 23.7696 19.2105 22.9563 20.9213 21.61C18.5936 19.7871 17.0792 16.8985 17.0792 13.6734Z" fill="#EB001B"/>
<path d="M37.2715 13.6734C37.2715 19.2543 32.7563 23.7696 27.1753 23.7696C24.8195 23.7696 22.6601 22.9563 20.9494 21.61C23.3051 19.7591 24.7916 16.8985 24.7916 13.6734C24.7916 10.4482 23.277 7.58758 20.9494 5.73656C22.66 4.39043 24.8195 3.57715 27.1753 3.57715C32.7563 3.57715 37.2716 8.12044 37.2716 13.6734H37.2715Z" fill="#F79E1B"/>
</g>
<defs>
<clipPath id="clip0_2_563">
<rect x="4.59912" y="3.57715" width="32.7048" height="25.4229" rx="3" fill="white"/>
</clipPath>
</defs>
</svg>
