<svg width="17" height="22" viewBox="0 0 17 22" fill="none" xmlns="http://www.w3.org/2000/svg">
<path d="M3.66663 0.456055H13.3333C14.2947 0.456055 15.2167 0.785295 15.8966 1.37135C16.5764 1.9574 16.9583 2.75225 16.9583 3.58105V19.2061C16.9582 19.6099 16.8219 20.0051 16.566 20.3434C16.3101 20.6817 15.9457 20.9486 15.5171 21.1117C15.0884 21.2747 14.614 21.3268 14.1517 21.2616C13.6893 21.1964 13.2589 21.0168 12.9128 20.7446L9.31438 17.9144C9.09177 17.7393 8.8013 17.6422 8.49996 17.6422C8.19862 17.6422 7.90815 17.7393 7.68554 17.9144L4.08713 20.7446C3.74103 21.0168 3.31061 21.1964 2.84824 21.2616C2.38588 21.3268 1.91151 21.2747 1.48286 21.1117C1.05422 20.9486 0.689779 20.6817 0.4339 20.3434C0.178021 20.0051 0.0417344 19.6099 0.041626 19.2061L0.041626 3.58105C0.041626 2.75225 0.423545 1.9574 1.10336 1.37135C1.78318 0.785295 2.70522 0.456055 3.66663 0.456055ZM4.87496 8.78939C4.55449 8.78939 4.24715 8.89914 4.02054 9.09449C3.79393 9.28984 3.66663 9.55479 3.66663 9.83106C3.66663 10.1073 3.79393 10.3723 4.02054 10.5676C4.24715 10.763 4.55449 10.8727 4.87496 10.8727H12.125C12.4454 10.8727 12.7528 10.763 12.9794 10.5676C13.206 10.3723 13.3333 10.1073 13.3333 9.83106C13.3333 9.55479 13.206 9.28984 12.9794 9.09449C12.7528 8.89914 12.4454 8.78939 12.125 8.78939H4.87496Z" fill="#1AB65C"/>
</svg>
