<svg width="15" height="15" viewBox="0 0 15 15" fill="none" xmlns="http://www.w3.org/2000/svg">
<rect width="15" height="15" rx="3" fill="#1AB65C"/>
<path d="M6.08373 10.4837L6.26055 10.6603L6.43724 10.4835L12.2367 4.68104L12.2435 4.67423L12.2498 4.66692C12.3408 4.56064 12.3883 4.42393 12.3829 4.28411C12.3775 4.14429 12.3196 4.01166 12.2206 3.91272C12.1217 3.81378 11.989 3.75581 11.8492 3.75041C11.7094 3.74501 11.5727 3.79257 11.4664 3.88359L11.4591 3.88982L11.4524 3.8966L6.25441 9.08863L3.68108 6.51531L3.67425 6.50848L3.66692 6.5022C3.56064 6.41118 3.42393 6.36363 3.28411 6.36903C3.14429 6.37443 3.01166 6.43239 2.91272 6.53133C2.81378 6.63027 2.75581 6.7629 2.75041 6.90272C2.74501 7.04254 2.79257 7.17925 2.88359 7.28553L2.88991 7.29291L2.89678 7.29978L6.08373 10.4837Z" fill="white" stroke="white" stroke-width="0.5"/>
</svg>
