<svg width="390" height="590" viewBox="0 0 390 590" fill="none" xmlns="http://www.w3.org/2000/svg">
<rect x="21.5" y="0.5" width="347" height="589" rx="19.5" fill="white" stroke="#C4C4C4"/>
<mask id="path-2-inside-1_2_375" fill="white">
<path d="M21 274C26.0391 274 30.8718 276.002 34.435 279.565C37.9982 283.128 40 287.961 40 293C40 298.039 37.9982 302.872 34.435 306.435C30.8718 309.998 26.0391 312 21 312L21 293V274Z"/>
</mask>
<path d="M21 274C26.0391 274 30.8718 276.002 34.435 279.565C37.9982 283.128 40 287.961 40 293C40 298.039 37.9982 302.872 34.435 306.435C30.8718 309.998 26.0391 312 21 312L21 293V274Z" fill="white" stroke="#C4C4C4" stroke-width="2" mask="url(#path-2-inside-1_2_375)"/>
<mask id="path-3-inside-2_2_375" fill="white">
<path d="M368 313C362.961 313 358.128 310.998 354.565 307.435C351.002 303.872 349 299.039 349 294C349 288.961 351.002 284.128 354.565 280.565C358.128 277.002 362.961 275 368 275L368 294L368 313Z"/>
</mask>
<path d="M368 313C362.961 313 358.128 310.998 354.565 307.435C351.002 303.872 349 299.039 349 294C349 288.961 351.002 284.128 354.565 280.565C358.128 277.002 362.961 275 368 275L368 294L368 313Z" fill="white" stroke="#C4C4C4" stroke-width="2" mask="url(#path-3-inside-2_2_375)"/>
<path d="M17 274C22.0391 274 26.8718 276.002 30.435 279.565C33.9982 283.128 36 287.961 36 293C36 298.039 33.9982 302.872 30.435 306.435C26.8718 309.998 22.0391 312 17 312L17 293V274Z" fill="white"/>
<path d="M372 313C366.961 313 362.128 310.998 358.565 307.435C355.002 303.872 353 299.039 353 294C353 288.961 355.002 284.128 358.565 280.565C362.128 277.002 366.961 275 372 275L372 294L372 313Z" fill="white"/>
<path d="M41.3739 293.016H46.8139V294.784H41.3739V293.016ZM49.0612 293.016H54.5012V294.784H49.0612V293.016ZM56.7485 293.016H62.1885V294.784H56.7485V293.016ZM64.4358 293.016H69.8758V294.784H64.4358V293.016ZM72.1231 293.016H77.5631V294.784H72.1231V293.016ZM79.8104 293.016H85.2504V294.784H79.8104V293.016ZM87.4977 293.016H92.9377V294.784H87.4977V293.016ZM95.185 293.016H100.625V294.784H95.185V293.016ZM102.872 293.016H108.312V294.784H102.872V293.016ZM110.56 293.016H116V294.784H110.56V293.016ZM118.247 293.016H123.687V294.784H118.247V293.016ZM125.934 293.016H131.374V294.784H125.934V293.016ZM133.622 293.016H139.062V294.784H133.622V293.016ZM141.309 293.016H146.749V294.784H141.309V293.016ZM148.996 293.016H154.436V294.784H148.996V293.016ZM156.683 293.016H162.123V294.784H156.683V293.016ZM164.371 293.016H169.811V294.784H164.371V293.016ZM172.058 293.016H177.498V294.784H172.058V293.016ZM179.745 293.016H185.185V294.784H179.745V293.016ZM187.433 293.016H192.873V294.784H187.433V293.016ZM195.12 293.016H200.56V294.784H195.12V293.016ZM202.807 293.016H208.247V294.784H202.807V293.016ZM210.495 293.016H215.935V294.784H210.495V293.016ZM218.182 293.016H223.622V294.784H218.182V293.016ZM225.869 293.016H231.309V294.784H225.869V293.016ZM233.557 293.016H238.997V294.784H233.557V293.016ZM241.244 293.016H246.684V294.784H241.244V293.016ZM248.931 293.016H254.371V294.784H248.931V293.016ZM256.618 293.016H262.058V294.784H256.618V293.016ZM264.306 293.016H269.746V294.784H264.306V293.016ZM271.993 293.016H277.433V294.784H271.993V293.016ZM279.68 293.016H285.12V294.784H279.68V293.016ZM287.368 293.016H292.808V294.784H287.368V293.016ZM295.055 293.016H300.495V294.784H295.055V293.016ZM302.742 293.016H308.182V294.784H302.742V293.016ZM310.43 293.016H315.87V294.784H310.43V293.016ZM318.117 293.016H323.557V294.784H318.117V293.016ZM325.804 293.016H331.244V294.784H325.804V293.016ZM333.491 293.016H338.931V294.784H333.491V293.016ZM341.179 293.016H346.619V294.784H341.179V293.016Z" fill="#C4C4C4"/>
</svg>
